<?xml version="1.0" encoding="UTF-8"?>
<svg id="Layer_1" xmlns="http://www.w3.org/2000/svg" version="1.1" viewBox="0 0 49.9 18.4">
  <!-- Generator: Adobe Illustrator 29.3.1, SVG Export Plug-In . SVG Version: 2.1.0 Build 151)  -->
  <defs>
    <style>
      .st0 {
        fill: #ef223a;
      }

      .st1 {
        fill: #ffd6db;
      }

      .st2 {
        fill: #fd7685;
      }
    </style>
  </defs>
  <path class="st2" d="M12.8,18.3c-.6,0-1.3-.2-1.8-.7-1.1-1-1.1-2.6-.2-3.7L22.8.9c1-1.1,2.6-1.1,3.7-.2,1.1,1,1.1,2.6.2,3.7l-11.9,13.1c-.5.6-1.2.9-1.9.9h-.1Z"/>
  <path class="st0" d="M47.3,18.3c-.7,0-1.4-.3-1.9-.8l-10.2-11-10.2,11c-1,1.1-2.6,1.1-3.7.1s-1.1-2.6-.1-3.7L33.3.8c.5-.5,1.2-.8,1.9-.8s1.4.3,1.9.8l12.1,13.1c1,1.1.9,2.7,0,3.7s-1.1.7-1.8.7Z"/>
  <path class="st1" d="M2.7,18.3c-.6,0-1.3-.2-1.8-.7-1.1-1-1.1-2.6-.2-3.7L12.6.9c1-1.1,2.6-1.1,3.7-.2,1.1,1,1.1,2.6.2,3.7l-11.9,13.1c-.5.6-1.2.9-1.9.9h0Z"/>
  <path class="st0" d="M36.7,12.5h-3c-.5,0-.9.4-.9.9v3c0,.5.4.9.9.9h3c.5,0,.9-.4.9-.9v-3c0-.5-.4-.9-.9-.9Z"/>
</svg>